<mxfile host="app.diagrams.net" modified="2023-12-07T03:28:42.293Z" agent="Mozilla/5.0 (Windows NT 10.0; Win64; x64) AppleWebKit/537.36 (KHTML, like Gecko) Chrome/119.0.0.0 Safari/537.36 Edg/119.0.0.0" etag="-SO9GsytUUFUYgiLCCEz" version="22.1.7" type="device">
  <diagram id="R2lEEEUBdFMjLlhIrx00" name="Page-1">
    <mxGraphModel dx="1007" dy="672" grid="1" gridSize="10" guides="1" tooltips="1" connect="1" arrows="1" fold="1" page="1" pageScale="1" pageWidth="850" pageHeight="1100" math="0" shadow="0" extFonts="Permanent Marker^https://fonts.googleapis.com/css?family=Permanent+Marker">
      <root>
        <mxCell id="0" />
        <mxCell id="1" parent="0" />
        <mxCell id="HBrsdOqay-1bmX4OGq_Y-1" value="库房" style="rounded=0;whiteSpace=wrap;html=1;labelBackgroundColor=none;fillColor=#5D7F99;strokeColor=#D0CEE2;fontColor=#1A1A1A;" parent="1" vertex="1">
          <mxGeometry x="110" y="90" width="60" height="30" as="geometry" />
        </mxCell>
        <mxCell id="HBrsdOqay-1bmX4OGq_Y-6" value="员工" style="rounded=0;whiteSpace=wrap;html=1;labelBackgroundColor=none;fillColor=#5D7F99;strokeColor=#D0CEE2;fontColor=#1A1A1A;" parent="1" vertex="1">
          <mxGeometry x="510" y="90" width="60" height="30" as="geometry" />
        </mxCell>
        <mxCell id="HBrsdOqay-1bmX4OGq_Y-18" value="" style="endArrow=none;html=1;rounded=0;entryX=0;entryY=0.5;entryDx=0;entryDy=0;labelBackgroundColor=none;fontColor=default;strokeColor=#736CA8;" parent="1" target="HBrsdOqay-1bmX4OGq_Y-12" edge="1">
          <mxGeometry width="50" height="50" relative="1" as="geometry">
            <mxPoint x="170" y="104.5" as="sourcePoint" />
            <mxPoint x="220" y="105" as="targetPoint" />
          </mxGeometry>
        </mxCell>
        <mxCell id="HBrsdOqay-1bmX4OGq_Y-19" value="" style="endArrow=none;html=1;rounded=0;entryX=0;entryY=0.5;entryDx=0;entryDy=0;labelBackgroundColor=none;fontColor=default;strokeColor=#736CA8;" parent="1" source="HBrsdOqay-1bmX4OGq_Y-12" target="HBrsdOqay-1bmX4OGq_Y-6" edge="1">
          <mxGeometry width="50" height="50" relative="1" as="geometry">
            <mxPoint x="310" y="104.5" as="sourcePoint" />
            <mxPoint x="360" y="105" as="targetPoint" />
          </mxGeometry>
        </mxCell>
        <mxCell id="HBrsdOqay-1bmX4OGq_Y-20" value="" style="endArrow=none;html=1;rounded=0;entryX=0;entryY=0.5;entryDx=0;entryDy=0;labelBackgroundColor=none;fontColor=default;strokeColor=#736CA8;" parent="1" target="HBrsdOqay-1bmX4OGq_Y-12" edge="1">
          <mxGeometry width="50" height="50" relative="1" as="geometry">
            <mxPoint x="310" y="104.5" as="sourcePoint" />
            <mxPoint x="365" y="105" as="targetPoint" />
          </mxGeometry>
        </mxCell>
        <mxCell id="HBrsdOqay-1bmX4OGq_Y-12" value="工作" style="rhombus;whiteSpace=wrap;html=1;labelBackgroundColor=none;fillColor=#5D7F99;strokeColor=#D0CEE2;fontColor=#1A1A1A;" parent="1" vertex="1">
          <mxGeometry x="290" y="85" width="90" height="40" as="geometry" />
        </mxCell>
        <mxCell id="HBrsdOqay-1bmX4OGq_Y-21" value="" style="endArrow=none;html=1;rounded=0;labelBackgroundColor=none;fontColor=default;strokeColor=#736CA8;" parent="1" edge="1">
          <mxGeometry width="50" height="50" relative="1" as="geometry">
            <mxPoint x="520" y="180" as="sourcePoint" />
            <mxPoint x="520" y="120" as="targetPoint" />
          </mxGeometry>
        </mxCell>
        <mxCell id="HBrsdOqay-1bmX4OGq_Y-22" value="&lt;span style=&quot;color: rgba(0, 0, 0, 0); font-family: monospace; font-size: 0px; font-style: normal; font-variant-ligatures: normal; font-variant-caps: normal; font-weight: 400; letter-spacing: normal; orphans: 2; text-align: start; text-indent: 0px; text-transform: none; widows: 2; word-spacing: 0px; -webkit-text-stroke-width: 0px; background-color: rgb(251, 251, 251); text-decoration-thickness: initial; text-decoration-style: initial; text-decoration-color: initial; float: none; display: inline !important;&quot;&gt;%3CmxGraphModel%3E%3Croot%3E%3CmxCell%20id%3D%220%22%2F%3E%3CmxCell%20id%3D%221%22%20parent%3D%220%22%2F%3E%3CmxCell%20id%3D%222%22%20value%3D%22%22%20style%3D%22endArrow%3Dnone%3Bhtml%3D1% 3Brounded%3D0%3B%22%20edge%3D%221%22%20parent%3D%221%22%3E%3CmxGeometry%20width%3D%2250%22%20height%3D%2250%22%20relative%3D%221%22%20as%3D%22geometry%22%3E%3CmxPoint%20x%3D%22520%22%20y%3D%22180%22%20as%3D%22sourcePoint%22%2F%3E%3CmxPoint%20x%3D%22520%22%20y%3D%22120%22%20as%3D%22targetPoint%22%2F%3E%3C%2FmxGeometry%3E%3C%2FmxCell%3E%3C%2Froot%3E%3C%2FmxGraphModel%3E&lt;/span&gt;" style="text;whiteSpace=wrap;html=1;labelBackgroundColor=none;fontColor=#1A1A1A;" parent="1" vertex="1">
          <mxGeometry x="550" y="160" width="30" height="40" as="geometry" />
        </mxCell>
        <mxCell id="HBrsdOqay-1bmX4OGq_Y-23" value="" style="endArrow=none;html=1;rounded=0;labelBackgroundColor=none;fontColor=default;strokeColor=#736CA8;" parent="1" edge="1">
          <mxGeometry width="50" height="50" relative="1" as="geometry">
            <mxPoint x="134" y="230" as="sourcePoint" />
            <mxPoint x="134.44" y="120" as="targetPoint" />
          </mxGeometry>
        </mxCell>
        <mxCell id="HBrsdOqay-1bmX4OGq_Y-24" value="领导" style="rhombus;whiteSpace=wrap;html=1;labelBackgroundColor=none;fillColor=#5D7F99;strokeColor=#D0CEE2;fontColor=#1A1A1A;" parent="1" vertex="1">
          <mxGeometry x="495" y="170" width="90" height="40" as="geometry" />
        </mxCell>
        <mxCell id="HBrsdOqay-1bmX4OGq_Y-25" value="1" style="text;strokeColor=none;align=center;fillColor=none;html=1;verticalAlign=middle;whiteSpace=wrap;rounded=0;labelBackgroundColor=none;fontColor=#1A1A1A;" parent="1" vertex="1">
          <mxGeometry x="110" y="160" width="60" height="30" as="geometry" />
        </mxCell>
        <mxCell id="HBrsdOqay-1bmX4OGq_Y-26" value="n" style="text;strokeColor=none;align=center;fillColor=none;html=1;verticalAlign=middle;whiteSpace=wrap;rounded=0;labelBackgroundColor=none;fontColor=#1A1A1A;" parent="1" vertex="1">
          <mxGeometry x="540" y="130" width="60" height="30" as="geometry" />
        </mxCell>
        <mxCell id="HBrsdOqay-1bmX4OGq_Y-27" value="" style="endArrow=none;html=1;rounded=0;labelBackgroundColor=none;fontColor=default;strokeColor=#736CA8;" parent="1" edge="1">
          <mxGeometry width="50" height="50" relative="1" as="geometry">
            <mxPoint x="560" y="180" as="sourcePoint" />
            <mxPoint x="560" y="120" as="targetPoint" />
          </mxGeometry>
        </mxCell>
        <mxCell id="HBrsdOqay-1bmX4OGq_Y-28" value="存放" style="rhombus;whiteSpace=wrap;html=1;labelBackgroundColor=none;fillColor=#5D7F99;strokeColor=#D0CEE2;fontColor=#1A1A1A;" parent="1" vertex="1">
          <mxGeometry x="90" y="230" width="90" height="40" as="geometry" />
        </mxCell>
        <mxCell id="HBrsdOqay-1bmX4OGq_Y-29" value="&#xa;&lt;span style=&quot;color: rgba(0, 0, 0, 0); font-family: monospace; font-size: 0px; font-style: normal; font-variant-ligatures: normal; font-variant-caps: normal; font-weight: 400; letter-spacing: normal; orphans: 2; text-align: start; text-indent: 0px; text-transform: none; widows: 2; word-spacing: 0px; -webkit-text-stroke-width: 0px; background-color: rgb(251, 251, 251); text-decoration-thickness: initial; text-decoration-style: initial; text-decoration-color: initial; float: none; display: inline !important;&quot;&gt;%3CmxGraphModel%3E%3Croot%3E%3CmxCell%20id%3D%220%22%2F%3E%3CmxCell%20id%3D%221%22%20parent%3D%220%22%2F%3E" style="endArrow=none;html=1;rounded=0;labelBackgroundColor=none;fontColor=default;strokeColor=#736CA8;" parent="1" edge="1">
          <mxGeometry width="50" height="50" relative="1" as="geometry">
            <mxPoint x="180" y="250" as="sourcePoint" />
            <mxPoint x="240" y="251" as="targetPoint" />
          </mxGeometry>
        </mxCell>
        <mxCell id="HBrsdOqay-1bmX4OGq_Y-30" value="库存量" style="ellipse;whiteSpace=wrap;html=1;labelBackgroundColor=none;fillColor=#5D7F99;strokeColor=#D0CEE2;fontColor=#1A1A1A;" parent="1" vertex="1">
          <mxGeometry x="240" y="230" width="70" height="40" as="geometry" />
        </mxCell>
        <mxCell id="HBrsdOqay-1bmX4OGq_Y-31" value="" style="endArrow=none;html=1;rounded=0;labelBackgroundColor=none;fontColor=default;strokeColor=#736CA8;" parent="1" edge="1">
          <mxGeometry width="50" height="50" relative="1" as="geometry">
            <mxPoint x="134" y="370" as="sourcePoint" />
            <mxPoint x="134.44" y="270" as="targetPoint" />
          </mxGeometry>
        </mxCell>
        <mxCell id="HBrsdOqay-1bmX4OGq_Y-32" value="原材料" style="rounded=0;whiteSpace=wrap;html=1;labelBackgroundColor=none;fillColor=#5D7F99;strokeColor=#D0CEE2;fontColor=#1A1A1A;" parent="1" vertex="1">
          <mxGeometry x="105" y="370" width="60" height="30" as="geometry" />
        </mxCell>
        <mxCell id="HBrsdOqay-1bmX4OGq_Y-33" value="n" style="text;strokeColor=none;align=center;fillColor=none;html=1;verticalAlign=middle;whiteSpace=wrap;rounded=0;labelBackgroundColor=none;fontColor=#1A1A1A;" parent="1" vertex="1">
          <mxGeometry x="110" y="310" width="60" height="30" as="geometry" />
        </mxCell>
        <mxCell id="HBrsdOqay-1bmX4OGq_Y-35" value="&lt;span style=&quot;color: rgba(0, 0, 0, 0); font-family: monospace; font-size: 0px; font-style: normal; font-variant-ligatures: normal; font-variant-caps: normal; font-weight: 400; letter-spacing: normal; orphans: 2; text-align: start; text-indent: 0px; text-transform: none; widows: 2; word-spacing: 0px; -webkit-text-stroke-width: 0px; background-color: rgb(251, 251, 251); text-decoration-thickness: initial; text-decoration-style: initial; text-decoration-color: initial; float: none; display: inline !important;&quot;&gt;%3CmxGraphModel%3E%3Croot%3E%3CmxCell%20id%3D%220%22%2F%3E%3CmxCell%20id%3D%221%22%20parent%3D%220%22%2F%3E%3CmxCell%20id%3D%222%22%20value%3D%221%22%20style%3D%22text%3BstrokeColor%3Dnone%3Balign%3Dcenter%3BfillColor%3Dnone%3Balign%3Dcenter%1BfillFillcolor%3Dnone%3Bhtml%3D3%3BverticalAlign%3Dmiddle%0BwhiteSpace%3Dwrap%3Brounded%23393D56%3BfontColor%22D%20C3%221B%22%20vertex%3D%221%22%3parent%3D%20%3%22480E%22CmxGeometry%20x%3D%22130%22%20y%3D%2260%22%20width%3D%2230%22%20高度%3D%22%22%2as%3D%3geometry%2%3F%3E%2C%3FmxCell%3E&lt;/span&gt;" style="text;whiteSpace=wrap;html=1;labelBackgroundColor=none;fontColor=#1A1A1A;" parent="1" vertex="1">
          <mxGeometry x="430" y="230" width="30" height="40" as="geometry" />
        </mxCell>
        <mxCell id="HBrsdOqay-1bmX4OGq_Y-36" value="&lt;span style=&quot;color: rgba(0, 0, 0, 0); font-family: monospace; font-size: 0px; font-style: normal; font-variant-ligatures: normal; font-variant-caps: normal; font-weight: 400; letter-spacing: normal; orphans: 2; text-align: start; text-indent: 0px; text-transform: none; widows: 2; word-spacing: 0px; -webkit-text-stroke-width: 0px; background-color: rgb(251, 251, 251); text-decoration-thickness: initial; text-decoration-style: initial; text-decoration-color: initial; float: none; display: inline !important;&quot;&gt;1&lt;/span&gt;" style="text;whiteSpace=wrap;html=1;labelBackgroundColor=none;fontColor=#1A1A1A;" parent="1" vertex="1">
          <mxGeometry x="440" y="190" width="30" height="40" as="geometry" />
        </mxCell>
        <mxCell id="HBrsdOqay-1bmX4OGq_Y-40" value="1" style="text;strokeColor=none;align=center;fillColor=none;html=1;verticalAlign=middle;whiteSpace=wrap;rounded=0;labelBackgroundColor=none;fontColor=#1A1A1A;" parent="1" vertex="1">
          <mxGeometry x="480" y="130" width="60" height="30" as="geometry" />
        </mxCell>
        <mxCell id="HBrsdOqay-1bmX4OGq_Y-41" value="&lt;span style=&quot;color: rgba(0, 0, 0, 0); font-family: monospace; font-size: 0px; font-style: normal; font-variant-ligatures: normal; font-variant-caps: normal; font-weight: 400; letter-spacing: normal; orphans: 2; text-align: start; text-indent: 0px; text-transform: none; widows: 2; word-spacing: 0px; -webkit-text-stroke-width: 0px; background-color: rgb(251, 251, 251); text-decoration-thickness: initial; text-decoration-style: initial; text-decoration-color: initial; float: none; display: inline !important;&quot;&gt;%3CmxGraphModel%3E%3Croot%3E%3CmxCell%20id%3D%220%22%2F%3E%3CmxCell%20id%3D%221%22%20parent%3D%220%22%2F%3E&lt;/span&gt;" style="text;whiteSpace=wrap;html=1;labelBackgroundColor=none;fontColor=#1A1A1A;" parent="1" vertex="1">
          <mxGeometry x="210" y="380" width="30" height="40" as="geometry" />
        </mxCell>
        <mxCell id="HBrsdOqay-1bmX4OGq_Y-44" value="" style="endArrow=none;html=1;rounded=0;entryX=0;entryY=0.5;entryDx=0;entryDy=0;labelBackgroundColor=none;fontColor=default;strokeColor=#736CA8;" parent="1" edge="1">
          <mxGeometry width="50" height="50" relative="1" as="geometry">
            <mxPoint x="170" y="104" as="sourcePoint" />
            <mxPoint x="290" y="105" as="targetPoint" />
          </mxGeometry>
        </mxCell>
        <mxCell id="HBrsdOqay-1bmX4OGq_Y-45" value="" style="endArrow=none;html=1;rounded=0;labelBackgroundColor=none;fontColor=default;strokeColor=#736CA8;" parent="1" edge="1">
          <mxGeometry width="50" height="50" relative="1" as="geometry">
            <mxPoint x="165" y="384.44" as="sourcePoint" />
            <mxPoint x="250" y="385" as="targetPoint" />
          </mxGeometry>
        </mxCell>
        <mxCell id="HBrsdOqay-1bmX4OGq_Y-46" value="供应" style="rhombus;whiteSpace=wrap;html=1;labelBackgroundColor=none;fillColor=#5D7F99;strokeColor=#D0CEE2;fontColor=#1A1A1A;" parent="1" vertex="1">
          <mxGeometry x="250" y="365" width="90" height="40" as="geometry" />
        </mxCell>
        <mxCell id="HBrsdOqay-1bmX4OGq_Y-47" value="&lt;span style=&quot;color: rgba(0, 0, 0, 0); font-family: monospace; font-size: 0px; font-style: normal; font-variant-ligatures: normal; font-variant-caps: normal; font-weight: 400; letter-spacing: normal; orphans: 2; text-align: start; text-indent: 0px; text-transform: none; widows: 2; word-spacing: 0px; -webkit-text-stroke-width: 0px; background-color: rgb(251, 251, 251); text-decoration-thickness: initial; text-decoration-style: initial; text-decoration-color: initial; float: none; display: inline !important;&quot;&gt;%3CmxGraphModel%3E%3Croot%3E%3CmxCell%20id%3D%220%22%2F%3E%3CmxCell%20id%3D%221%22%20parent%3D%220%22%2F%3E&lt;/span&gt;" style="text;whiteSpace=wrap;html=1;labelBackgroundColor=none;fontColor=#1A1A1A;" parent="1" vertex="1">
          <mxGeometry x="530" y="160" width="30" height="40" as="geometry" />
        </mxCell>
        <mxCell id="HBrsdOqay-1bmX4OGq_Y-48" value="" style="endArrow=none;html=1;rounded=0;labelBackgroundColor=none;fontColor=default;strokeColor=#736CA8;" parent="1" edge="1">
          <mxGeometry width="50" height="50" relative="1" as="geometry">
            <mxPoint x="294.44" y="365" as="sourcePoint" />
            <mxPoint x="294" y="330" as="targetPoint" />
          </mxGeometry>
        </mxCell>
        <mxCell id="HBrsdOqay-1bmX4OGq_Y-49" value="供应量" style="ellipse;whiteSpace=wrap;html=1;labelBackgroundColor=none;fillColor=#5D7F99;strokeColor=#D0CEE2;fontColor=#1A1A1A;" parent="1" vertex="1">
          <mxGeometry x="260" y="290" width="70" height="40" as="geometry" />
        </mxCell>
        <mxCell id="HBrsdOqay-1bmX4OGq_Y-50" value="m" style="text;strokeColor=none;align=center;fillColor=none;html=1;verticalAlign=middle;whiteSpace=wrap;rounded=0;labelBackgroundColor=none;fontColor=#1A1A1A;" parent="1" vertex="1">
          <mxGeometry x="180" y="360" width="60" height="30" as="geometry" />
        </mxCell>
        <mxCell id="HBrsdOqay-1bmX4OGq_Y-51" value="n" style="text;strokeColor=none;align=center;fillColor=none;html=1;verticalAlign=middle;whiteSpace=wrap;rounded=0;labelBackgroundColor=none;fontColor=#1A1A1A;" parent="1" vertex="1">
          <mxGeometry x="340" y="360" width="60" height="30" as="geometry" />
        </mxCell>
        <mxCell id="HBrsdOqay-1bmX4OGq_Y-52" value="&#xa;&lt;span style=&quot;color: rgba(0, 0, 0, 0); font-family: monospace; font-size: 0px; font-style: normal; font-variant-ligatures: normal; font-variant-caps: normal; font-weight: 400; letter-spacing: normal; orphans: 2; text-align: start; text-indent: 0px; text-transform: none; widows: 2; word-spacing: 0px; -webkit-text-stroke-width: 0px; background-color: rgb(251, 251, 251); text-decoration-thickness: initial; text-decoration-style: initial; text-decoration-color: initial; float: none; display: inline !important;&quot;&gt;%3CmxGraphModel%3E%3Croot%3E%3CmxCell%20id%3D%220%22%2F%3E%3CmxCell%20id%3D%221%22%20parent%3D%220%22%2F%3E" style="endArrow=none;html=1;rounded=0;labelBackgroundColor=none;fontColor=default;strokeColor=#736CA8;" parent="1" edge="1">
          <mxGeometry width="50" height="50" relative="1" as="geometry">
            <mxPoint x="340" y="384.44" as="sourcePoint" />
            <mxPoint x="400" y="385.44" as="targetPoint" />
            <Array as="points">
              <mxPoint x="370" y="385.44" />
            </Array>
          </mxGeometry>
        </mxCell>
        <mxCell id="HBrsdOqay-1bmX4OGq_Y-53" value="生产厂家" style="rounded=0;whiteSpace=wrap;html=1;labelBackgroundColor=none;fillColor=#5D7F99;strokeColor=#D0CEE2;fontColor=#1A1A1A;" parent="1" vertex="1">
          <mxGeometry x="400" y="370" width="60" height="30" as="geometry" />
        </mxCell>
        <mxCell id="HBrsdOqay-1bmX4OGq_Y-54" value="" style="endArrow=none;html=1;rounded=0;labelBackgroundColor=none;fontColor=default;strokeColor=#736CA8;" parent="1" edge="1">
          <mxGeometry width="50" height="50" relative="1" as="geometry">
            <mxPoint x="294" y="460" as="sourcePoint" />
            <mxPoint x="294.44" y="405" as="targetPoint" />
          </mxGeometry>
        </mxCell>
        <mxCell id="HBrsdOqay-1bmX4OGq_Y-55" value="工程项目" style="rounded=0;whiteSpace=wrap;html=1;labelBackgroundColor=none;fillColor=#5D7F99;strokeColor=#D0CEE2;fontColor=#1A1A1A;" parent="1" vertex="1">
          <mxGeometry x="265" y="460" width="60" height="30" as="geometry" />
        </mxCell>
        <mxCell id="HBrsdOqay-1bmX4OGq_Y-59" value="库房号" style="ellipse;whiteSpace=wrap;html=1;fontStyle=4;labelBackgroundColor=none;fillColor=#5D7F99;strokeColor=#D0CEE2;fontColor=#1A1A1A;" parent="1" vertex="1">
          <mxGeometry x="20" y="20" width="70" height="40" as="geometry" />
        </mxCell>
        <mxCell id="HBrsdOqay-1bmX4OGq_Y-60" value="" style="endArrow=none;html=1;rounded=0;fontColor=default;entryX=0;entryY=0;entryDx=0;entryDy=0;labelBackgroundColor=none;strokeColor=#736CA8;" parent="1" target="HBrsdOqay-1bmX4OGq_Y-1" edge="1">
          <mxGeometry width="50" height="50" relative="1" as="geometry">
            <mxPoint x="65" y="60" as="sourcePoint" />
            <mxPoint x="105" y="80" as="targetPoint" />
          </mxGeometry>
        </mxCell>
        <mxCell id="HBrsdOqay-1bmX4OGq_Y-61" value="地点" style="ellipse;whiteSpace=wrap;html=1;fontStyle=0;labelBackgroundColor=none;fillColor=#5D7F99;strokeColor=#D0CEE2;fontColor=#1A1A1A;" parent="1" vertex="1">
          <mxGeometry x="100" y="20" width="70" height="40" as="geometry" />
        </mxCell>
        <mxCell id="HBrsdOqay-1bmX4OGq_Y-63" value="" style="endArrow=none;html=1;rounded=0;fontColor=default;exitX=0.5;exitY=0;exitDx=0;exitDy=0;labelBackgroundColor=none;strokeColor=#736CA8;" parent="1" source="HBrsdOqay-1bmX4OGq_Y-1" edge="1">
          <mxGeometry width="50" height="50" relative="1" as="geometry">
            <mxPoint x="139" y="80" as="sourcePoint" />
            <mxPoint x="139.38" y="60" as="targetPoint" />
          </mxGeometry>
        </mxCell>
        <mxCell id="HBrsdOqay-1bmX4OGq_Y-65" value="库房面积" style="ellipse;whiteSpace=wrap;html=1;fontStyle=0;labelBackgroundColor=none;fillColor=#5D7F99;strokeColor=#D0CEE2;fontColor=#1A1A1A;" parent="1" vertex="1">
          <mxGeometry x="180" y="20" width="70" height="40" as="geometry" />
        </mxCell>
        <mxCell id="HBrsdOqay-1bmX4OGq_Y-66" value="" style="endArrow=none;html=1;rounded=0;fontColor=default;exitX=0.883;exitY=-0.044;exitDx=0;exitDy=0;exitPerimeter=0;entryX=0;entryY=1;entryDx=0;entryDy=0;labelBackgroundColor=none;strokeColor=#736CA8;" parent="1" source="HBrsdOqay-1bmX4OGq_Y-1" target="HBrsdOqay-1bmX4OGq_Y-65" edge="1">
          <mxGeometry width="50" height="50" relative="1" as="geometry">
            <mxPoint x="150" y="100" as="sourcePoint" />
            <mxPoint x="200" y="50" as="targetPoint" />
          </mxGeometry>
        </mxCell>
        <mxCell id="HBrsdOqay-1bmX4OGq_Y-67" value="库房类型" style="ellipse;whiteSpace=wrap;html=1;labelBackgroundColor=none;fillColor=#5D7F99;strokeColor=#D0CEE2;fontColor=#1A1A1A;" parent="1" vertex="1">
          <mxGeometry x="260" y="20" width="70" height="35" as="geometry" />
        </mxCell>
        <mxCell id="HBrsdOqay-1bmX4OGq_Y-68" value="" style="endArrow=none;html=1;rounded=0;fontColor=default;exitX=1;exitY=0;exitDx=0;exitDy=0;entryX=0.5;entryY=1;entryDx=0;entryDy=0;labelBackgroundColor=none;strokeColor=#736CA8;" parent="1" source="HBrsdOqay-1bmX4OGq_Y-1" target="HBrsdOqay-1bmX4OGq_Y-67" edge="1">
          <mxGeometry width="50" height="50" relative="1" as="geometry">
            <mxPoint x="175" y="90" as="sourcePoint" />
            <mxPoint x="275" y="60" as="targetPoint" />
          </mxGeometry>
        </mxCell>
        <mxCell id="HBrsdOqay-1bmX4OGq_Y-69" value="员工号" style="ellipse;whiteSpace=wrap;html=1;fontStyle=4;labelBackgroundColor=none;fillColor=#5D7F99;strokeColor=#D0CEE2;fontColor=#1A1A1A;" parent="1" vertex="1">
          <mxGeometry x="450" y="20" width="70" height="40" as="geometry" />
        </mxCell>
        <mxCell id="HBrsdOqay-1bmX4OGq_Y-70" value="" style="endArrow=none;html=1;rounded=0;fontColor=default;exitX=0;exitY=0;exitDx=0;exitDy=0;labelBackgroundColor=none;strokeColor=#736CA8;" parent="1" source="HBrsdOqay-1bmX4OGq_Y-6" target="HBrsdOqay-1bmX4OGq_Y-69" edge="1">
          <mxGeometry width="50" height="50" relative="1" as="geometry">
            <mxPoint x="520" y="105" as="sourcePoint" />
            <mxPoint x="500" y="60" as="targetPoint" />
          </mxGeometry>
        </mxCell>
        <mxCell id="HBrsdOqay-1bmX4OGq_Y-72" value="姓名" style="ellipse;whiteSpace=wrap;html=1;labelBackgroundColor=none;fillColor=#5D7F99;strokeColor=#D0CEE2;fontColor=#1A1A1A;" parent="1" vertex="1">
          <mxGeometry x="540" y="25" width="70" height="35" as="geometry" />
        </mxCell>
        <mxCell id="HBrsdOqay-1bmX4OGq_Y-73" value="" style="endArrow=none;html=1;rounded=0;fontColor=default;exitX=0.5;exitY=0;exitDx=0;exitDy=0;labelBackgroundColor=none;strokeColor=#736CA8;" parent="1" source="HBrsdOqay-1bmX4OGq_Y-6" edge="1">
          <mxGeometry width="50" height="50" relative="1" as="geometry">
            <mxPoint x="520" y="100" as="sourcePoint" />
            <mxPoint x="570" y="60" as="targetPoint" />
          </mxGeometry>
        </mxCell>
        <mxCell id="HBrsdOqay-1bmX4OGq_Y-75" value="性别" style="ellipse;whiteSpace=wrap;html=1;labelBackgroundColor=none;fillColor=#5D7F99;strokeColor=#D0CEE2;fontColor=#1A1A1A;" parent="1" vertex="1">
          <mxGeometry x="620" y="25" width="70" height="35" as="geometry" />
        </mxCell>
        <mxCell id="HBrsdOqay-1bmX4OGq_Y-76" value="" style="endArrow=none;html=1;rounded=0;fontColor=default;labelBackgroundColor=none;strokeColor=#736CA8;" parent="1" target="HBrsdOqay-1bmX4OGq_Y-75" edge="1">
          <mxGeometry width="50" height="50" relative="1" as="geometry">
            <mxPoint x="570" y="100" as="sourcePoint" />
            <mxPoint x="620" y="50" as="targetPoint" />
          </mxGeometry>
        </mxCell>
        <mxCell id="HBrsdOqay-1bmX4OGq_Y-77" value="" style="endArrow=none;html=1;rounded=0;fontColor=default;labelBackgroundColor=none;strokeColor=#736CA8;" parent="1" edge="1">
          <mxGeometry width="50" height="50" relative="1" as="geometry">
            <mxPoint x="570" y="104.47" as="sourcePoint" />
            <mxPoint x="630" y="104.47" as="targetPoint" />
          </mxGeometry>
        </mxCell>
        <mxCell id="HBrsdOqay-1bmX4OGq_Y-78" value="职称" style="ellipse;whiteSpace=wrap;html=1;labelBackgroundColor=none;fillColor=#5D7F99;strokeColor=#D0CEE2;fontColor=#1A1A1A;" parent="1" vertex="1">
          <mxGeometry x="630" y="85" width="70" height="35" as="geometry" />
        </mxCell>
        <mxCell id="HBrsdOqay-1bmX4OGq_Y-79" value="材料号" style="ellipse;whiteSpace=wrap;html=1;fontStyle=4;labelBackgroundColor=none;fillColor=#5D7F99;strokeColor=#D0CEE2;fontColor=#1A1A1A;" parent="1" vertex="1">
          <mxGeometry x="20" y="330" width="70" height="40" as="geometry" />
        </mxCell>
        <mxCell id="HBrsdOqay-1bmX4OGq_Y-80" value="" style="endArrow=none;html=1;rounded=0;fontColor=default;entryX=0;entryY=0.5;entryDx=0;entryDy=0;exitX=1;exitY=1;exitDx=0;exitDy=0;labelBackgroundColor=none;strokeColor=#736CA8;" parent="1" source="HBrsdOqay-1bmX4OGq_Y-79" target="HBrsdOqay-1bmX4OGq_Y-32" edge="1">
          <mxGeometry width="50" height="50" relative="1" as="geometry">
            <mxPoint x="90" y="370" as="sourcePoint" />
            <mxPoint x="135" y="400" as="targetPoint" />
          </mxGeometry>
        </mxCell>
        <mxCell id="HBrsdOqay-1bmX4OGq_Y-81" value="名称" style="ellipse;whiteSpace =wrap;html=1;fontStyle=0;labelBackgroundColor=none;fillColor=#5D7F99;strokeColor=#D0CEE2;fontColor=#1A1A1A;" parent="1" vertex="1">
          <mxGeometry x="10" y="390" width="70" height="40" as="geometry" />
        </mxCell>
        <mxCell id="HBrsdOqay-1bmX4OGq_Y-82" value="" style="endArrow=none;html=1;rounded=0;fontColor=default;entryX=0;entryY=0.75;entryDx=0;entryDy=0;labelBackgroundColor=none;strokeColor=#736CA8;" parent="1" target="HBrsdOqay-1bmX4OGq_Y-32" edge="1">
          <mxGeometry width="50" height="50" relative="1" as="geometry">
            <mxPoint x="80" y="410" as="sourcePoint" />
            <mxPoint x="120" y="370" as="targetPoint" />
          </mxGeometry>
        </mxCell>
        <mxCell id="HBrsdOqay-1bmX4OGq_Y-83" value="规格" style="ellipse;whiteSpace =wrap;html=1;fontStyle=0;labelBackgroundColor=none;fillColor=#5D7F99;strokeColor=#D0CEE2;fontColor=#1A1A1A;" parent="1" vertex="1">
          <mxGeometry x="10" y="440" width="70" height="40" as="geometry" />
        </mxCell>
        <mxCell id="HBrsdOqay-1bmX4OGq_Y-84" value="单价" style="ellipse;whiteSpace =wrap;html=1;fontStyle=0;labelBackgroundColor=none;fillColor=#5D7F99;strokeColor=#D0CEE2;fontColor=#1A1A1A;" parent="1" vertex="1">
          <mxGeometry x="10" y="490" width="70" height="40" as="geometry" />
        </mxCell>
        <mxCell id="HBrsdOqay-1bmX4OGq_Y-86" value="说明" style="ellipse;whiteSpace =wrap;html=1;fontStyle=0;labelBackgroundColor=none;fillColor=#5D7F99;strokeColor=#D0CEE2;fontColor=#1A1A1A;" parent="1" vertex="1">
          <mxGeometry x="10" y="540" width="70" height="40" as="geometry" />
        </mxCell>
        <mxCell id="HBrsdOqay-1bmX4OGq_Y-87" value="" style="endArrow=none;html=1;rounded=0;fontColor=default;entryX=0.25;entryY=1;entryDx=0;entryDy=0;labelBackgroundColor=none;strokeColor=#736CA8;" parent="1" target="HBrsdOqay-1bmX4OGq_Y-32" edge="1">
          <mxGeometry width="50" height="50" relative="1" as="geometry">
            <mxPoint x="80" y="460" as="sourcePoint" />
            <mxPoint x="130" y="410" as="targetPoint" />
          </mxGeometry>
        </mxCell>
        <mxCell id="HBrsdOqay-1bmX4OGq_Y-88" value="" style="endArrow=none;html=1;rounded=0;fontColor=default;entryX=0.25;entryY=1;entryDx=0;entryDy=0;exitX=1;exitY=0;exitDx=0;exitDy=0;labelBackgroundColor=none;strokeColor=#736CA8;" parent="1" source="HBrsdOqay-1bmX4OGq_Y-84" target="HBrsdOqay-1bmX4OGq_Y-32" edge="1">
          <mxGeometry width="50" height="50" relative="1" as="geometry">
            <mxPoint x="80" y="500" as="sourcePoint" />
            <mxPoint x="130" y="450" as="targetPoint" />
          </mxGeometry>
        </mxCell>
        <mxCell id="HBrsdOqay-1bmX4OGq_Y-89" value="" style="endArrow=none;html=1;rounded=0;fontColor=default;entryX=0.5;entryY=1;entryDx=0;entryDy=0;labelBackgroundColor=none;strokeColor=#736CA8;" parent="1" target="HBrsdOqay-1bmX4OGq_Y-32" edge="1">
          <mxGeometry width="50" height="50" relative="1" as="geometry">
            <mxPoint x="70" y="550" as="sourcePoint" />
            <mxPoint x="120" y="500" as="targetPoint" />
          </mxGeometry>
        </mxCell>
        <mxCell id="HBrsdOqay-1bmX4OGq_Y-91" value="项目号" style="ellipse;whiteSpace=wrap;html=1;fontStyle=4;labelBackgroundColor=none;fillColor=#5D7F99;strokeColor=#D0CEE2;fontColor=#1A1A1A;" parent="1" vertex="1">
          <mxGeometry x="195" y="530" width="70" height="40" as="geometry" />
        </mxCell>
        <mxCell id="HBrsdOqay-1bmX4OGq_Y-92" value="" style="endArrow=none;html=1;rounded=0;fontColor=default;exitX=0.638;exitY=-0.017;exitDx=0;exitDy=0;exitPerimeter=0;labelBackgroundColor=none;strokeColor=#736CA8;" parent="1" source="HBrsdOqay-1bmX4OGq_Y-91" edge="1">
          <mxGeometry width="50" height="50" relative="1" as="geometry">
            <mxPoint x="230" y="530" as="sourcePoint" />
            <mxPoint x="270" y="490" as="targetPoint" />
          </mxGeometry>
        </mxCell>
        <mxCell id="HBrsdOqay-1bmX4OGq_Y-93" value="预算资金" style="ellipse;whiteSpace =wrap;html=1;fontStyle=0;labelBackgroundColor=none;fillColor=#5D7F99;strokeColor=#D0CEE2;fontColor=#1A1A1A;" parent="1" vertex="1">
          <mxGeometry x="290" y="530" width="70" height="40" as="geometry" />
        </mxCell>
        <mxCell id="HBrsdOqay-1bmX4OGq_Y-94" value="" style="endArrow=none;html=1;rounded=0;fontColor=default;exitX=0.612;exitY=0.009;exitDx=0;exitDy=0;exitPerimeter=0;labelBackgroundColor=none;strokeColor=#736CA8;" parent="1" source="HBrsdOqay-1bmX4OGq_Y-93" target="HBrsdOqay-1bmX4OGq_Y-55" edge="1">
          <mxGeometry width="50" height="50" relative="1" as="geometry">
            <mxPoint x="320" y="510" as="sourcePoint" />
            <mxPoint x="370" y="414" as="targetPoint" />
            <Array as="points">
              <mxPoint x="320" y="510" />
            </Array>
          </mxGeometry>
        </mxCell>
        <mxCell id="HBrsdOqay-1bmX4OGq_Y-95" value="开工日期" style="ellipse;whiteSpace =wrap;html=1;fontStyle=0;labelBackgroundColor=none;fillColor=#5D7F99;strokeColor=#D0CEE2;fontColor=#1A1A1A;" parent="1" vertex="1">
          <mxGeometry x="380" y="530" width="70" height="40" as="geometry" />
        </mxCell>
        <mxCell id="HBrsdOqay-1bmX4OGq_Y-96" value="" style="endArrow=none;html=1;rounded=0;fontColor=default;labelBackgroundColor=none;strokeColor=#736CA8;" parent="1" edge="1">
          <mxGeometry width="50" height="50" relative="1" as="geometry">
            <mxPoint x="400" y="530" as="sourcePoint" />
            <mxPoint x="325" y="480" as="targetPoint" />
            <Array as="points" />
          </mxGeometry>
        </mxCell>
        <mxCell id="HBrsdOqay-1bmX4OGq_Y-97" value="竣工日期" style="ellipse;whiteSpace =wrap;html=1;fontStyle=0;labelBackgroundColor=none;fillColor=#5D7F99;strokeColor=#D0CEE2;fontColor=#1A1A1A;" parent="1" vertex="1">
          <mxGeometry x="470" y="530" width="70" height="40" as="geometry" />
        </mxCell>
        <mxCell id="HBrsdOqay-1bmX4OGq_Y-98" value="" style="endArrow=none;html=1;rounded=0;fontColor=default;entryX=1;entryY=0.5;entryDx=0;entryDy=0;exitX=0;exitY=0;exitDx=0;exitDy=0;labelBackgroundColor=none;strokeColor=#736CA8;" parent="1" source="HBrsdOqay-1bmX4OGq_Y-97" target="HBrsdOqay-1bmX4OGq_Y-55" edge="1">
          <mxGeometry width="50" height="50" relative="1" as="geometry">
            <mxPoint x="460" y="500" as="sourcePoint" />
            <mxPoint x="510" y="450" as="targetPoint" />
          </mxGeometry>
        </mxCell>
        <mxCell id="HBrsdOqay-1bmX4OGq_Y-99" value="&lt;span style=&quot;color: rgba(0, 0, 0, 0); font-family: monospace; font-size: 0px; font-style: normal; font-variant-ligatures: normal; font-variant-caps: normal; font-weight: 400; letter-spacing: normal; orphans: 2; text-align: start; text-indent: 0px; text-transform: none; widows: 2; word-spacing: 0px; -webkit-text-stroke-width: 0px; background-color: rgb(251, 251, 251); text-decoration-thickness: initial; text-decoration-style: initial; text-decoration-color: initial; float: none; display: inline !important;&quot;&gt;%3CmxGraphModel%3E%3Croot%3E%3CmxCell%20id%3D%220%22%2F%3E%3CmxCell%20id%3D%221%22%20parent%3D%220%22%2F%3E%3CmxCell%20id%3D%222%22%20value%3D%22n%22%20style%3D%22text%3BstrokeColor%3Dnone%3Balign%3Dcenter%3BfillColor%3Dnone%3Balign%3Dcenter%1BfillFillcolor%3Dnone%3Bhtml%3D3%3BverticalAlign%3Dmiddle%0BwhiteSpace%3Dwrap%3Brounded%23393D56%3BfontColor%22D%20C3%221B%22%20vertex%3D%221%22%3parent%3D%20%3%22340E%22CmxGeometry%20x%3D%22360%22%20y%3D%2260%22%20width%3D%2230%22%20高度%3D%22%22%2as%3D%3geometry%2%3F%3E%2C%3FmxCell%3E&lt;/span&gt;" style="text;whiteSpace=wrap;html=1;labelBackgroundColor=none;fontColor=#1A1A1A;" parent="1" vertex="1">
          <mxGeometry x="310" y="430" width="30" height="40" as="geometry" />
        </mxCell>
        <mxCell id="HBrsdOqay-1bmX4OGq_Y-100" value="p" style="text;strokeColor=none;align=center;fillColor=none;html=1;verticalAlign=middle;whiteSpace=wrap;rounded=0;labelBackgroundColor=none;fontColor=#1A1A1A;" parent="1" vertex="1">
          <mxGeometry x="280" y="420" width="60" height="30" as="geometry" />
        </mxCell>
        <mxCell id="HBrsdOqay-1bmX4OGq_Y-101" value="厂家号" style="ellipse;whiteSpace=wrap;html=1;fontStyle=4;labelBackgroundColor=none;fillColor=#5D7F99;strokeColor=#D0CEE2;fontColor=#1A1A1A;" parent="1" vertex="1">
          <mxGeometry x="520" y="330" width="70" height="40" as="geometry" />
        </mxCell>
        <mxCell id="HBrsdOqay-1bmX4OGq_Y-102" value="" style="endArrow=none;html=1;rounded=0;fontColor=default;entryX=0;entryY=0.5;entryDx=0;entryDy=0;exitX=1;exitY=0.25;exitDx=0;exitDy=0;labelBackgroundColor=none;strokeColor=#736CA8;" parent="1" source="HBrsdOqay-1bmX4OGq_Y-53" target="HBrsdOqay-1bmX4OGq_Y-101" edge="1">
          <mxGeometry width="50" height="50" relative="1" as="geometry">
            <mxPoint x="460" y="390" as="sourcePoint" />
            <mxPoint x="510" y="340" as="targetPoint" />
          </mxGeometry>
        </mxCell>
        <mxCell id="HBrsdOqay-1bmX4OGq_Y-103" value="厂家名称" style="ellipse;whiteSpace =wrap;html=1;fontStyle=0;labelBackgroundColor=none;fillColor=#5D7F99;strokeColor=#D0CEE2;fontColor=#1A1A1A;" parent="1" vertex="1">
          <mxGeometry x="520" y="380" width="70" height="40" as="geometry" />
        </mxCell>
        <mxCell id="HBrsdOqay-1bmX4OGq_Y-104" value="" style="endArrow=none;html=1;rounded=0;fontColor=default;entryX=0;entryY=0.5;entryDx=0;entryDy=0;labelBackgroundColor=none;strokeColor=#736CA8;" parent="1" target="HBrsdOqay-1bmX4OGq_Y-103" edge="1">
          <mxGeometry width="50" height="50" relative="1" as="geometry">
            <mxPoint x="460" y="390" as="sourcePoint" />
            <mxPoint x="510" y="340" as="targetPoint" />
          </mxGeometry>
        </mxCell>
        <mxCell id="HBrsdOqay-1bmX4OGq_Y-105" value="通信地址" style="ellipse;whiteSpace =wrap;html=1;fontStyle=0;labelBackgroundColor=none;fillColor=#5D7F99;strokeColor=#D0CEE2;fontColor=#1A1A1A;" parent="1" vertex="1">
          <mxGeometry x="520" y="430" width="70" height="40" as="geometry" />
        </mxCell>
        <mxCell id="HBrsdOqay-1bmX4OGq_Y-106" value="" style="endArrow=none;html=1;rounded=0;fontColor=default;exitX=0.003;exitY=0.18;exitDx=0;exitDy=0;exitPerimeter=0;labelBackgroundColor=none;strokeColor=#736CA8;" parent="1" source="HBrsdOqay-1bmX4OGq_Y-105" edge="1">
          <mxGeometry width="50" height="50" relative="1" as="geometry">
            <mxPoint x="410" y="450" as="sourcePoint" />
            <mxPoint x="460" y="400" as="targetPoint" />
          </mxGeometry>
        </mxCell>
        <mxCell id="HBrsdOqay-1bmX4OGq_Y-108" value="联系电话" style="ellipse;whiteSpace =wrap;html=1;fontStyle=0;labelBackgroundColor=none;fillColor=#5D7F99;strokeColor=#D0CEE2;fontColor=#1A1A1A;" parent="1" vertex="1">
          <mxGeometry x="520" y="480" width="70" height="40" as="geometry" />
        </mxCell>
        <mxCell id="HBrsdOqay-1bmX4OGq_Y-109" value="" style="endArrow=none;html=1;rounded=0;fontColor=default;exitX=0;exitY=0.5;exitDx=0;exitDy=0;labelBackgroundColor=none;strokeColor=#736CA8;" parent="1" source="HBrsdOqay-1bmX4OGq_Y-108" edge="1">
          <mxGeometry width="50" height="50" relative="1" as="geometry">
            <mxPoint x="400" y="450" as="sourcePoint" />
            <mxPoint x="450" y="400" as="targetPoint" />
          </mxGeometry>
        </mxCell>
      </root>
    </mxGraphModel>
  </diagram>
</mxfile>
